<svg width="40" height="40" viewBox="0 0 40 40" fill="none" xmlns="http://www.w3.org/2000/svg">
  <rect width="40" height="40" rx="8" fill="url(#gradient)"/>
  <path d="M20 16C17.79 16 16 17.79 16 20C16 22.21 17.79 24 20 24C22.21 24 24 22.21 24 20C24 17.79 22.21 16 20 16ZM20 22.5C18.62 22.5 17.5 21.38 17.5 20C17.5 18.62 18.62 17.5 20 17.5C21.38 17.5 22.5 18.62 22.5 20C22.5 21.38 21.38 22.5 20 22.5Z" fill="white" fill-opacity="0.95"/>
  <circle cx="20" cy="20" r="3" fill="white" fill-opacity="0.95"/>
  <path d="M20 12C14.48 12 10 15.36 10 19.5C10 21.61 11.34 23.5 13.44 24.86C13.78 25.05 14 25.41 14 25.8V27C14 27.55 14.45 28 15 28H25C25.55 28 26 27.55 26 27V25.8C26 25.41 26.22 25.05 26.56 24.86C28.66 23.5 30 21.61 30 19.5C30 15.36 25.52 12 20 12Z" stroke="white" stroke-width="1.5" stroke-opacity="0.95" fill="none" stroke-linecap="round" stroke-linejoin="round"/>
  <defs>
    <linearGradient id="gradient" x1="0" y1="0" x2="0" y2="40" gradientUnits="userSpaceOnUse">
      <stop offset="0%" stop-color="#FF00FF" stop-opacity="1"/>
      <stop offset="100%" stop-color="#FF6B4A" stop-opacity="1"/>
    </linearGradient>
  </defs>
</svg>

